<svg xmlns="http://www.w3.org/2000/svg" width="32" height="32" fill="none" viewBox="0 0 32 32"><path fill="#0e0410" fill-rule="evenodd" d="M19.7 5.838Q21 4.281 21 2.48q0-.24-.026-.48-.903.049-1.92.55-1.018.507-1.678 1.273C16.495 4.831 16 6.065 16 7.217q0 .239.027.455c1.369.112 2.631-.6 3.675-1.834m4.604 17.185q.739-1.063 1.277-2.32.221-.533.419-1.112a5.4 5.4 0 0 1-1.644-1.09q-1.621-1.52-1.646-3.818-.027-2.95 2.652-4.593-1.498-2.15-4.496-2.393-1.105-.095-2.703.485-1.693.628-1.99.628-.393-.002-1.793-.533-1.401-.53-2.261-.532a5.77 5.77 0 0 0-2.924.834 6.1 6.1 0 0 0-2.162 2.211Q5.999 12.535 6 14.948q0 2.106.764 4.352.712 2.08 1.819 3.652 1.03 1.473 1.72 2.08 1.077 1.013 2.16.966.713-.023 1.868-.496 1.154-.47 2.162-.47.96 0 2.101.47 1.141.471 1.952.47 1.13-.025 2.114-.94.636-.558 1.644-2.009" clip-rule="evenodd"/></svg>