<svg xmlns="http://www.w3.org/2000/svg" width="84" height="107" fill="none" viewBox="0 0 84 107"><path fill="#ff7d4e" d="M80.237 86.519V24.66H55.115V13.253C55.115 5.954 49.181 0 41.863 0S28.61 5.935 28.61 13.253V24.66H3.49V86.54L0 106.909h83.725zM34.625 13.252c0-3.99 3.248-7.237 7.238-7.237S49.1 9.263 49.1 13.253V24.66H34.645zM7.138 100.895 9.503 87.04V30.675h64.739V87.04l2.346 13.854z"/><path fill="#ff7d4e" d="M50.624 49.296c-1.103-3.789-4.612-6.576-8.762-6.576s-7.659 2.787-8.762 6.576a20.15 20.15 0 0 0-7.899 6.717c-2.386 3.408-3.629 7.418-3.629 11.608 0 11.188 9.103 20.31 20.31 20.31 11.208 0 20.29-9.122 20.29-20.33 0-4.17-1.263-8.18-3.63-11.608-2.044-2.887-4.75-5.193-7.919-6.697m-11.87 2.547a3.11 3.11 0 0 1 3.108-3.108 3.123 3.123 0 0 1 3.108 3.108v4.03h-3.108a3.11 3.11 0 0 1-3.108-3.108zm3.108 30.053c-7.88 0-14.295-6.415-14.295-14.295 0-4.571 2.225-8.841 5.814-11.488 1.343 3.368 4.632 5.754 8.481 5.754h9.122v-5.253c3.188 2.667 5.173 6.697 5.173 10.987 0 7.88-6.416 14.295-14.295 14.295"/><path fill="#ff7d4e" d="M41.863 69.867a1.83 1.83 0 0 1-1.825-1.825h-6.015c0 4.331 3.53 7.84 7.84 7.84s7.839-3.529 7.839-7.84h-6.015a1.83 1.83 0 0 1-1.824 1.825"/></svg>