<svg xmlns="http://www.w3.org/2000/svg" width="32" height="32" fill="none" viewBox="0 0 32 32"><circle cx="24.5" cy="7.5" r="4.5" fill="#ff7d4e"/><path fill="#000" fill-rule="evenodd" d="M18.2 3.43A5.8 5.8 0 0 0 15.995 3C12.9 3 10.36 5.407 10.19 8.434H8.316c-1.019 0-1.859.787-1.92 1.792L5.002 27.091v.025A1.794 1.794 0 0 0 6.805 29h18.39a1.83 1.83 0 0 0 1.31-.559c.334-.355.518-.837.492-1.325v-.015l-1.015-12.247a7.5 7.5 0 0 1-1.835.138l1.001 12.18H6.846L8.24 10.363v-.025c0-.04.036-.076.082-.076h9.203a7.5 7.5 0 0 1-.467-1.828H12.04c.17-2.016 1.88-3.606 3.955-3.606.494 0 .967.09 1.403.254.2-.587.47-1.141.802-1.653" clip-rule="evenodd"/></svg>