<svg xmlns="http://www.w3.org/2000/svg" width="294" height="350" fill="none" viewBox="0 0 294 350"><path fill="#faf8f6" d="M147 53.681c-21.889 0-39.701 17.822-39.701 39.724v54.755h-53.65V93.405C53.65 41.87 95.497 0 147 0s93.35 41.871 93.35 93.405v54.755h-53.649V93.405c0-21.902-17.812-39.724-39.701-39.724M186.701 148.16h-79.402v54.754c0 21.902 17.812 39.724 39.701 39.724s39.701-17.822 39.701-39.724z"/><path fill="#faf8f6" d="M240.35 148.16H294v54.754C294 284.08 228.118 350 147 350S0 284.08 0 202.914V148.16h53.65v54.754c0 51.534 41.846 93.405 93.35 93.405s93.35-41.871 93.35-93.405z"/></svg>