<svg xmlns="http://www.w3.org/2000/svg" width="22" height="22" fill="none" viewBox="0 0 22 22"><path fill="#d4d3d1" d="M19.034 0H2.966A2.963 2.963 0 0 0 0 2.967V19.04A2.96 2.96 0 0 0 2.966 22h7.923l.014-7.865H8.858a.49.49 0 0 1-.484-.477l-.007-2.537c0-.269.215-.484.484-.484h2.038v-2.45c0-2.838 1.735-4.386 4.27-4.386h2.08c.268 0 .483.216.483.485v2.14c0 .268-.215.483-.484.483H15.96c-1.379 0-1.648.653-1.648 1.615v2.12h3.027a.48.48 0 0 1 .478.538l-.303 2.536a.48.48 0 0 1-.478.424H14.32V22h4.715A2.967 2.967 0 0 0 22 19.033V2.967A2.97 2.97 0 0 0 19.034 0"/></svg>