<svg xmlns="http://www.w3.org/2000/svg" width="32" height="32" fill="none" viewBox="0 0 32 32"><mask id="a" width="22" height="22" x="5" y="5" maskUnits="userSpaceOnUse" style="mask-type:luminance"><path fill="#fff" fill-rule="evenodd" d="M5 5.001h21.999v21.865H5z" clip-rule="evenodd"/></mask><g fill-rule="evenodd" clip-rule="evenodd" mask="url(#a)"><path fill="#4385f6" d="M26.263 16.243c0-.758-.068-1.487-.195-2.187H15.996v4.137h5.756a4.92 4.92 0 0 1-2.134 3.227v2.684h3.456c2.022-1.862 3.189-4.604 3.189-7.86"/><path fill="#34a855" d="M15.998 26.695c2.888 0 5.309-.958 7.078-2.591L19.62 21.42c-.958.642-2.183 1.021-3.622 1.021-2.785 0-5.143-1.881-5.984-4.409H6.441v2.771a10.69 10.69 0 0 0 9.557 5.892"/><path fill="#fbbd06" d="M10.015 18.033A6.4 6.4 0 0 1 9.68 16c0-.704.121-1.39.335-2.031v-2.771H6.442A10.7 10.7 0 0 0 5.305 16c0 1.726.413 3.36 1.137 4.803z"/><path fill="#ea4235" d="M15.998 9.56c1.57 0 2.98.539 4.089 1.598l3.067-3.067c-1.852-1.726-4.273-2.785-7.156-2.785a10.69 10.69 0 0 0-9.557 5.891l3.573 2.771c.841-2.528 3.199-4.409 5.984-4.409"/></g></svg>