<svg xmlns="http://www.w3.org/2000/svg" width="22" height="22" fill="none" viewBox="0 0 22 22"><path fill="#d4d3d1" d="M10.996 1.983c2.937 0 3.282.013 4.443.065 1.074.048 1.655.227 2.043.38.515.2.882.437 1.266.82.384.385.624.752.82 1.267.15.389.332.97.38 2.044.053 1.162.066 1.507.066 4.445 0 2.94-.013 3.284-.066 4.446-.048 1.074-.227 1.655-.38 2.044-.2.515-.436.881-.82 1.266-.384.384-.75.624-1.266.82-.388.15-.969.333-2.043.38-1.16.053-1.506.066-4.443.066-2.938 0-3.283-.013-4.444-.065-1.074-.048-1.654-.227-2.043-.38a3.4 3.4 0 0 1-1.266-.821 3.4 3.4 0 0 1-.82-1.267c-.149-.388-.332-.969-.38-2.043-.053-1.162-.066-1.507-.066-4.446s.013-3.283.066-4.445c.048-1.074.227-1.655.38-2.044.2-.515.436-.882.82-1.266a3.36 3.36 0 0 1 1.266-.821c.389-.149.97-.332 2.043-.38 1.161-.057 1.51-.065 4.444-.065m0-1.983C8.01 0 7.635.013 6.46.066c-1.17.052-1.968.24-2.667.51a5.4 5.4 0 0 0-1.947 1.271 5.46 5.46 0 0 0-1.27 1.948c-.27.698-.458 1.498-.51 2.672C.012 7.637 0 8.013 0 11s.013 3.362.065 4.537c.053 1.17.24 1.97.511 2.673.28.724.66 1.336 1.27 1.947a5.45 5.45 0 0 0 1.947 1.27c.699.272 1.497.46 2.672.512 1.174.052 1.545.065 4.535.065s3.361-.013 4.535-.065c1.17-.052 1.969-.24 2.672-.511a5.36 5.36 0 0 0 1.947-1.27 5.46 5.46 0 0 0 1.27-1.948c.27-.7.458-1.498.51-2.673.053-1.175.066-1.546.066-4.537s-.013-3.362-.066-4.537c-.052-1.17-.24-1.97-.51-2.673a5.4 5.4 0 0 0-1.27-1.947 5.45 5.45 0 0 0-1.947-1.27C17.508.3 16.709.112 15.535.06 14.357.013 13.981 0 10.995 0"/><path fill="#d4d3d1" d="M10.996 5.354a5.65 5.65 0 0 0-5.648 5.65 5.65 5.65 0 0 0 5.648 5.65 5.65 5.65 0 0 0 5.649-5.65 5.65 5.65 0 0 0-5.649-5.65m0 9.314A3.667 3.667 0 0 1 7.33 11a3.667 3.667 0 1 1 7.334 0 3.667 3.667 0 0 1-3.667 3.668M16.867 6.445a1.318 1.318 0 1 0 0-2.637 1.318 1.318 0 0 0 0 2.637"/></svg>