<svg xmlns="http://www.w3.org/2000/svg" width="88" height="97" fill="none" viewBox="0 0 88 97"><path fill="#ffbe5a" d="M66.474 73.415c-1.227 0-2.454.101-3.662.322a28.03 28.03 0 0 0-16.276-7.565v-2.414l9.738-5.794c3.4 1.73 7.001 2.656 10.482 2.656 3.4 0 6.559-.845 9.396-2.535 6.216-3.682 9.717-10.925 9.375-19.335l-.06-1.63-1.409-.845c-3.862-2.314-8.047-3.54-12.071-3.54-3.4 0-6.559.844-9.396 2.534-5.754 3.42-9.174 9.879-9.375 17.504l-6.64 3.943V42.975c7.988-4.91 12.696-12.514 12.696-20.663 0-8.671-5.332-16.739-14.265-21.568L43.518 0 42.09.785C33.157 5.613 27.805 13.68 27.805 22.353c0 8.148 4.708 15.753 12.695 20.662v13.721l-6.64-3.943c-.2-7.625-3.62-14.083-9.375-17.504-2.816-1.67-5.975-2.535-9.395-2.535-4.024 0-8.21 1.227-12.072 3.541l-1.408.845-.06 1.63c-.343 8.41 3.158 15.653 9.375 19.335 2.816 1.67 5.975 2.535 9.395 2.535 3.481 0 7.062-.906 10.483-2.656l9.737 5.794v2.414a28.03 28.03 0 0 0-16.276 7.565 20.3 20.3 0 0 0-3.662-.322C9.235 73.416 0 82.65 0 93.978v3.018h87.036v-3.018c0-11.327-9.215-20.562-20.562-20.562M65.65 40.48c1.871-1.106 4.004-1.67 6.298-1.67 2.454 0 5.03.644 7.524 1.871-.2 5.433-2.555 9.94-6.418 12.233-1.87 1.106-4.004 1.67-6.297 1.67-1.288 0-2.596-.181-3.903-.523l7.907-4.688-3.079-5.191-7.927 4.708c.926-3.702 2.978-6.68 5.895-8.41M20.3 54.584c-2.313 0-4.426-.564-6.297-1.67-3.883-2.314-6.217-6.8-6.418-12.233 2.495-1.227 5.07-1.87 7.525-1.87 2.313 0 4.426.563 6.297 1.67 2.917 1.73 4.97 4.727 5.895 8.409l-7.887-4.688-3.118 5.17 7.906 4.689a14.7 14.7 0 0 1-3.903.523m13.54-32.231c0-5.976 3.582-11.63 9.678-15.432 6.096 3.803 9.678 9.456 9.678 15.432 0 4.909-2.415 9.596-6.66 13.218V22.353H40.5V35.57c-4.225-3.621-6.66-8.33-6.66-13.218M6.359 90.959C7.746 84.4 13.6 79.451 20.562 79.451c1.288 0 2.575.181 3.843.523l1.77.483 1.248-1.348a22 22 0 0 1 16.115-7.062 22 22 0 0 1 16.116 7.062l1.247 1.348 1.77-.483a14.5 14.5 0 0 1 3.843-.523c6.982 0 12.817 4.95 14.205 11.508z"/></svg>