<svg xmlns="http://www.w3.org/2000/svg" width="97" height="90" fill="none" viewBox="0 0 97 90"><path fill="#ff7d4e" d="M87.875 9.115C77.193-1.527 60.677-2.659 48.517 4.72 36.111-2.716 19.501-1.301 9.046 9.115c-12.52 12.473-11.781 32.908.587 45.21l8.182 8.152.02.019a8.7 8.7 0 0 0 5.681 2.51 8.55 8.55 0 0 0 2.52 5.66 8.55 8.55 0 0 0 5.681 2.51 8.58 8.58 0 0 0 2.52 5.66 8.55 8.55 0 0 0 5.682 2.51 8.55 8.55 0 0 0 2.519 5.66c3.37 3.36 8.845 3.36 12.216 0l8.201-8.17a8.5 8.5 0 0 0 2.52-5.66 8.6 8.6 0 0 0 5.681-2.51 8.5 8.5 0 0 0 2.52-5.66 8.55 8.55 0 0 0 5.682-2.51 8.5 8.5 0 0 0 2.519-5.661 8.55 8.55 0 0 0 5.682-2.51c12.481-12.453 12.784-32.888.416-45.21m-61.84 49.38a2.97 2.97 0 0 1-4.186 0 2.94 2.94 0 0 1 0-4.17l8.713-8.68a2.97 2.97 0 0 1 4.186 0 2.94 2.94 0 0 1 0 4.17zm4.016 8.17a2.94 2.94 0 0 1 0-4.17l8.2-8.17a2.97 2.97 0 0 1 4.187 0 2.94 2.94 0 0 1 0 4.17l-8.202 8.17a2.97 2.97 0 0 1-4.185 0m8.2 8.171a2.94 2.94 0 0 1 0-4.17l8.202-8.17a2.97 2.97 0 0 1 4.186 0 2.94 2.94 0 0 1 0 4.17l-8.201 8.17a2.97 2.97 0 0 1-4.186 0m20.57 0-8.201 8.17a2.97 2.97 0 0 1-4.186 0 2.94 2.94 0 0 1 0-4.17l8.201-8.17a2.97 2.97 0 0 1 4.186 0 2.94 2.94 0 0 1 0 4.17m24.603-24.51a2.97 2.97 0 0 1-4.186 0L62.837 33.984l-4.015 4 16.402 16.34a2.94 2.94 0 0 1 0 4.17 2.97 2.97 0 0 1-4.186 0l-16.402-16.34-4.015 4 16.402 16.34a2.94 2.94 0 0 1 0 4.17 2.97 2.97 0 0 1-4.186 0 8.55 8.55 0 0 0-5.682-2.509 8.5 8.5 0 0 0-2.519-5.66 8.55 8.55 0 0 0-5.682-2.51 8.55 8.55 0 0 0-2.519-5.66 8.65 8.65 0 0 0-5.17-2.473 8.56 8.56 0 0 0-2.52-6.208c-3.371-3.358-8.845-3.358-12.216 0l-8.713 8.68a8.6 8.6 0 0 0-1.723 2.453l-2.463-2.453c-10.208-10.17-10.814-27.02-.587-37.21 7.86-7.83 20.38-9.585 30.456-4.66-.379.34-.738.68-1.098 1.038l-11.895 11.85a9.155 9.155 0 0 0 0 12.981c3.106 3.095 7.993 3.548 11.63 1.151l18.315-12.17 22.955 22.869a2.9 2.9 0 0 1 .02 4.151m4.016-8.171L61.207 16.02 39.01 30.758c-1.401.925-3.276.736-4.45-.434a3.51 3.51 0 0 1 0-4.982l11.894-11.85C56.68 3.305 73.633 2.927 83.86 13.116c8.239 8.208 9.451 20.624 4.602 30.266a9 9 0 0 0-1.022-1.226"/></svg>