<svg xmlns="http://www.w3.org/2000/svg" width="86" height="98" fill="none" viewBox="0 0 86 98"><path fill="#ffbe5a" d="M51.6 22.905h-5.733v5.726H51.6z"/><path fill="#ffbe5a" d="M71.667 0H14.332c-4.74 0-8.6 3.856-8.6 8.59v22.904c0 4.734 3.86 8.59 8.6 8.59H34.4v13.933l20.927-13.934h16.34c4.739 0 8.6-3.855 8.6-8.589V8.589c0-4.733-3.861-8.589-8.6-8.589m2.866 31.494a2.86 2.86 0 0 1-2.867 2.863h-18.06l-13.473 8.971v-8.97h-25.8a2.86 2.86 0 0 1-2.866-2.864V8.589a2.86 2.86 0 0 1 2.866-2.863h57.334a2.86 2.86 0 0 1 2.866 2.863z"/><path fill="#ffbe5a" d="M40.134 22.905H17.2v5.726h22.934z"/><path fill="#ff7d4e" d="M17.2 45.81c-6.326 0-11.467 5.134-11.467 11.452S10.874 68.714 17.2 68.714s11.467-5.134 11.467-11.452S23.526 45.81 17.2 45.81m0 17.178c-3.153 0-5.733-2.577-5.733-5.726s2.58-5.726 5.733-5.726 5.733 2.576 5.733 5.726-2.58 5.726-5.733 5.726M20.067 68.714h-5.734C6.421 68.714 0 75.128 0 83.03v14.697h34.4V83.03c0-7.902-6.421-14.316-14.333-14.316m8.6 23.287H5.733V83.03c0-4.734 3.86-8.59 8.6-8.59h5.734c4.74 0 8.6 3.856 8.6 8.59zM68.8 45.81c-6.326 0-11.467 5.134-11.467 11.452s5.14 11.452 11.467 11.452c6.325 0 11.466-5.134 11.466-11.452S75.126 45.81 68.8 45.81m0 17.178c-3.154 0-5.734-2.577-5.734-5.726s2.58-5.726 5.734-5.726 5.733 2.576 5.733 5.726-2.58 5.726-5.733 5.726M71.667 68.714h-5.733c-7.912 0-14.333 6.414-14.333 14.316v14.697H86V83.03c0-7.902-6.422-14.316-14.334-14.316m8.6 23.287H57.334V83.03c0-4.734 3.86-8.59 8.6-8.59h5.733c4.74 0 8.6 3.856 8.6 8.59z"/><path fill="#ffbe5a" d="M68.8 11.452H17.2v5.727h51.6z"/></svg>