<svg xmlns="http://www.w3.org/2000/svg" width="40" height="48" fill="none" viewBox="0 0 40 48"><path fill="#ff7d4e" fill-rule="evenodd" d="M14.602 20.319h10.802v7.51c0 3.003-2.423 5.447-5.401 5.447s-5.401-2.444-5.401-5.448z" clip-rule="evenodd"/><path fill="#725cf0" fill-rule="evenodd" d="M32.7 20.319v7.51c0 7.067-5.693 12.809-12.7 12.809S7.3 34.896 7.3 27.828v-7.51H0v7.51C0 38.96 8.964 48 20 48c11.037 0 20-9.04 20-20.172v-7.51z" clip-rule="evenodd"/><path fill="#fdc672" fill-rule="evenodd" d="M20.005 0c-7.007 0-12.7 5.742-12.7 12.81v7.51h7.299v-7.51c0-3.004 2.423-5.448 5.401-5.448 2.979 0 5.402 2.444 5.402 5.448v7.51h7.3v-7.51C32.706 5.742 27.012 0 20.004 0" clip-rule="evenodd"/></svg>