<svg xmlns="http://www.w3.org/2000/svg" width="50" height="60" fill="none" viewBox="0 0 50 60"><rect width="10" height="22" x="39" y="36" fill="#fff" stroke="#000" stroke-width="2" rx="5"/><path fill="#000" d="M40 46h8v2h-8z"/><path fill="#fff" stroke="#000" stroke-width="2" d="M8 2h18a3 3 0 0 1 3 3v2a1 1 0 0 1-1 1H6a1 1 0 0 1-1-1V5a3 3 0 0 1 3-3Z"/><rect width="32" height="47" x="1" y="12" fill="#fff" stroke="#000" stroke-width="2" rx="6"/><path fill="#ff7d4e" stroke="#ff7d4e" d="M5 38.5a.5.5 0 1 1 0 1 .5.5 0 0 1 0-1Zm4 0a.5.5 0 1 1 0 1 .5.5 0 0 1 0-1Zm4 0a.5.5 0 1 1 0 1 .5.5 0 0 1 0-1Zm4 0a.5.5 0 1 1 0 1 .5.5 0 0 1 0-1Zm4 0a.5.5 0 1 1 0 1 .5.5 0 0 1 0-1Zm4 0a.5.5 0 1 1 0 1 .5.5 0 0 1 0-1Zm4 0a.5.5 0 1 1 0 1 .5.5 0 0 1 0-1Zm-22-4a.5.5 0 1 1 0 1 .5.5 0 0 1 0-1Zm4 0a.5.5 0 1 1 0 1 .5.5 0 0 1 0-1Zm4 0a.5.5 0 1 1 0 1 .5.5 0 0 1 0-1Zm4 0a.5.5 0 1 1 0 1 .5.5 0 0 1 0-1Zm4 0a.5.5 0 1 1 0 1 .5.5 0 0 1 0-1Zm4 0a.5.5 0 1 1 0 1 .5.5 0 0 1 0-1Zm-22-4a.5.5 0 1 1 0 1 .5.5 0 0 1 0-1Zm4 0a.5.5 0 1 1 0 1 .5.5 0 0 1 0-1Zm4 0a.5.5 0 1 1 0 1 .5.5 0 0 1 0-1Zm4 0a.5.5 0 1 1 0 1 .5.5 0 0 1 0-1Zm4 0a.5.5 0 1 1 0 1 .5.5 0 0 1 0-1Zm4 0a.5.5 0 1 1 0 1 .5.5 0 0 1 0-1Zm4 0a.5.5 0 1 1 0 1 .5.5 0 0 1 0-1Z"/><path fill="#fff" stroke="#000" stroke-width="2" d="M7 8h20v4H7z"/></svg>