<svg xmlns="http://www.w3.org/2000/svg" width="42" height="50" fill="none" viewBox="0 0 42 50"><path fill="#fff" d="M21 7.669a5.68 5.68 0 0 0-5.671 5.675v7.822H7.664v-7.822C7.664 5.982 13.642 0 21 0s13.336 5.982 13.336 13.344v7.822h-7.664v-7.822A5.68 5.68 0 0 0 21 7.669M26.672 21.166H15.329v7.822A5.68 5.68 0 0 0 21 34.663a5.68 5.68 0 0 0 5.672-5.675z"/><path fill="#fff" d="M34.336 21.166H42v7.822C42 40.583 32.588 50 21 50S0 40.583 0 28.988v-7.822h7.664v7.822C7.664 36.35 13.642 42.33 21 42.33s13.336-5.981 13.336-13.343z"/></svg>